<svg width="41" height="41" viewBox="0 0 41 41" fill="none" xmlns="http://www.w3.org/2000/svg">
<circle cx="20.375" cy="20.5" r="19.9675" stroke="#E0DBD2" stroke-width="0.815"/>
<path d="M24.2878 15.7234C24.0405 15.7234 23.8033 15.8252 23.6284 16.0064C23.4535 16.1876 23.3553 16.4334 23.3553 16.6896C23.3553 16.9459 23.4535 17.1917 23.6284 17.3729C23.8033 17.5541 24.0405 17.6559 24.2878 17.6559C24.5351 17.6559 24.7723 17.5541 24.9472 17.3729C25.1221 17.1917 25.2203 16.9459 25.2203 16.6896C25.2203 16.4334 25.1221 16.1876 24.9472 16.0064C24.7723 15.8252 24.5351 15.7234 24.2878 15.7234ZM27.8624 17.672C27.8473 17.0039 27.7265 16.3429 27.505 15.7154C27.3074 15.1784 26.9998 14.6922 26.6035 14.2902C26.2187 13.8775 25.7484 13.5609 25.2281 13.3642C24.624 13.1277 23.9854 12.9997 23.3397 12.9858C22.516 12.9375 22.2518 12.9375 20.1381 12.9375C18.0244 12.9375 17.7602 12.9375 16.9365 12.9858C16.2908 12.9997 15.6522 13.1277 15.0482 13.3642C14.5288 13.5628 14.0589 13.8792 13.6727 14.2902C13.2744 14.6889 12.9688 15.1763 12.779 15.7154C12.5507 16.3413 12.4272 17.003 12.4138 17.672C12.3672 18.5255 12.3672 18.7992 12.3672 20.9893C12.3672 23.1794 12.3672 23.4532 12.4138 24.3067C12.4272 24.9756 12.5507 25.6373 12.779 26.2632C12.9685 26.8027 13.2744 27.2898 13.6727 27.6884C14.0593 28.0991 14.5285 28.4161 15.0482 28.6144C15.6522 28.851 16.2908 28.9789 16.9365 28.9928C17.7602 29.0411 18.0244 29.0411 20.1381 29.0411C22.2518 29.0411 22.516 29.0411 23.3397 28.9928C23.9854 28.9789 24.624 28.851 25.2281 28.6144C25.7484 28.4178 26.2187 28.1011 26.6035 27.6884C27.0018 27.2878 27.3097 26.8017 27.505 26.2632C27.7264 25.6362 27.8469 24.975 27.8624 24.3067C27.8624 23.4532 27.909 23.1794 27.909 20.9893C27.909 18.7992 27.909 18.5255 27.8624 17.672ZM26.4637 24.21C26.458 24.7211 26.3687 25.2275 26.1994 25.7077C26.0754 26.0581 25.8761 26.3747 25.6166 26.6336C25.3641 26.8993 25.06 27.1067 24.723 27.2375C24.2596 27.4126 23.771 27.5052 23.2776 27.5113C22.5005 27.5515 22.213 27.5596 20.1692 27.5596C18.1254 27.5596 17.8379 27.5596 17.0608 27.5113C16.5486 27.5212 16.0386 27.4395 15.5533 27.2697C15.2314 27.1313 14.9404 26.9257 14.6985 26.6658C14.4405 26.4072 14.2437 26.0903 14.1234 25.7399C13.9337 25.2529 13.8285 24.735 13.8126 24.21C13.8126 23.4049 13.766 23.1069 13.766 20.9893C13.766 18.8717 13.766 18.5738 13.8126 17.7686C13.8165 17.2452 13.9078 16.7279 14.0846 16.2387C14.2214 15.8989 14.4314 15.5959 14.6985 15.353C14.9345 15.0763 15.2259 14.8558 15.5533 14.7089C16.0269 14.5318 16.5262 14.4392 17.0297 14.4351C17.8068 14.4351 18.0944 14.3868 20.1381 14.3868C22.1819 14.3868 22.4694 14.3868 23.2465 14.4351C23.7398 14.441 24.2285 14.5336 24.6919 14.7089C25.0455 14.8448 25.3621 15.0652 25.6166 15.353C25.8711 15.6006 26.0703 15.9026 26.1994 16.2387C26.3723 16.7289 26.4617 17.2462 26.4637 17.7686C26.5025 18.5738 26.5103 18.8717 26.5103 20.9893C26.5103 23.1069 26.5025 23.4049 26.4637 24.21ZM20.1381 16.8587C19.2832 16.8611 18.4516 17.1481 17.7661 17.6776C17.0807 18.207 16.5776 18.9507 16.3313 19.799C16.0849 20.6472 16.1082 21.5551 16.3979 22.3886C16.6875 23.2221 17.228 23.937 17.9398 24.4278C18.6515 24.9187 19.4966 25.1594 20.3505 25.1146C21.2043 25.0697 22.0216 24.7416 22.6818 24.1788C23.3419 23.6159 23.8099 22.848 24.0167 21.9884C24.2235 21.1289 24.1582 20.2232 23.8303 19.4051C23.5282 18.649 23.0158 18.003 22.3583 17.5496C21.7008 17.0961 20.9279 16.8556 20.1381 16.8587ZM20.1381 23.6706C19.4519 23.6706 18.7939 23.3881 18.3087 22.8854C17.8235 22.3826 17.5509 21.7008 17.5509 20.9898C17.5509 20.2788 17.8235 19.597 18.3087 19.0942C18.7939 18.5915 19.4519 18.3091 20.1381 18.3091C20.8243 18.3091 21.4824 18.5915 21.9676 19.0942C22.4528 19.597 22.7254 20.2788 22.7254 20.9898C22.7254 21.7008 22.4528 22.3826 21.9676 22.8854C21.4824 23.3881 20.8243 23.6706 20.1381 23.6706Z" fill="white" stroke="black" stroke-width="0.458439"/>
</svg>
