<svg width="46" height="46" viewBox="0 0 46 46" fill="none" xmlns="http://www.w3.org/2000/svg">
<path d="M22.6999 43.3447C33.7886 43.3447 42.7778 34.3555 42.7778 23.2668C42.7778 12.1781 33.7886 3.18896 22.6999 3.18896C11.6112 3.18896 2.62207 12.1781 2.62207 23.2668C2.62207 34.3555 11.6112 43.3447 22.6999 43.3447Z" stroke="white" stroke-width="0.830093" stroke-linecap="round" stroke-linejoin="round"/>
<path d="M28.5336 28.5484C28.4796 28.6367 28.4086 28.7136 28.3249 28.7745C28.2411 28.8354 28.1462 28.8792 28.0454 28.9034C27.9447 28.9276 27.8402 28.9317 27.7379 28.9155C27.6356 28.8993 27.5375 28.863 27.4493 28.8089C24.4809 26.9959 20.7445 26.5855 16.3436 27.5904C16.1399 27.637 15.926 27.6007 15.749 27.4895C15.572 27.3784 15.4464 27.2015 15.3998 26.9977C15.3533 26.7939 15.3896 26.58 15.5007 26.403C15.6119 26.226 15.7888 26.1005 15.9926 26.0539C20.8086 24.9537 24.9395 25.4271 28.2719 27.464C28.3603 27.518 28.4372 27.5888 28.4982 27.6725C28.5592 27.7561 28.6031 27.851 28.6274 27.9517C28.6517 28.0523 28.6559 28.1568 28.6398 28.259C28.6237 28.3613 28.5876 28.46 28.5336 28.5484ZM30.0807 25.1048C29.944 25.3276 29.7244 25.4869 29.4702 25.5478C29.2161 25.6087 28.9481 25.5661 28.7253 25.4294C25.3265 23.3407 20.1465 22.7362 16.1272 23.9558C15.8771 24.0313 15.6072 24.0047 15.3766 23.8817C15.1461 23.7587 14.9736 23.5494 14.8971 23.2995C14.8219 23.0495 14.8488 22.7798 14.9719 22.5495C15.0949 22.3192 15.3042 22.147 15.5539 22.0705C20.1459 20.6769 25.8539 21.3514 29.7561 23.75C29.9788 23.8867 30.138 24.1062 30.1989 24.3602C30.2597 24.6143 30.2172 24.8821 30.0807 25.1048ZM30.2136 21.5201C26.1385 19.0998 19.4161 18.8775 15.5257 20.0583C15.3771 20.1033 15.221 20.1187 15.0665 20.1035C14.9119 20.0882 14.7619 20.0427 14.625 19.9695C14.488 19.8962 14.3668 19.7967 14.2683 19.6767C14.1698 19.5566 14.0959 19.4183 14.0509 19.2697C14.0058 19.1211 13.9905 18.9651 14.0057 18.8105C14.021 18.656 14.0665 18.506 14.1397 18.369C14.2129 18.2321 14.3124 18.1109 14.4325 18.0124C14.5525 17.9139 14.6908 17.84 14.8394 17.7949C19.3056 16.4395 26.7295 16.7012 31.4203 19.4861C31.5539 19.5653 31.6707 19.67 31.7639 19.7943C31.857 19.9186 31.9248 20.0601 31.9632 20.2106C32.0017 20.3611 32.0101 20.5178 31.9879 20.6715C31.9658 20.8253 31.9136 20.9732 31.8343 21.1068C31.755 21.2403 31.6503 21.3569 31.526 21.45C31.4017 21.543 31.2603 21.6107 31.1099 21.6491C30.9594 21.6875 30.8029 21.6959 30.6492 21.6737C30.4955 21.6516 30.3471 21.5994 30.2136 21.5201Z" stroke="white" stroke-width="0.522699" stroke-linecap="round" stroke-linejoin="round"/>
</svg>
