<svg width="42" height="42" viewBox="0 0 42 42" fill="none" xmlns="http://www.w3.org/2000/svg">
<circle cx="21.272" cy="21.2666" r="19.9675" stroke="#E0DBD2" stroke-width="0.815"/>
<path d="M25.5407 17.5678C25.452 17.52 25.3656 17.4676 25.282 17.4107C25.0387 17.242 24.816 17.0435 24.6186 16.8196C24.2302 16.3631 23.9713 15.804 23.8709 15.2043H23.8737C23.8169 14.8538 23.8406 14.6279 23.8444 14.6279H21.5908V23.7569C21.5908 23.8797 21.5908 24.0004 21.5861 24.1202C21.5861 24.1359 21.5842 24.1497 21.5832 24.1654L21.5823 24.185V24.1909C21.5586 24.5179 21.4581 24.8351 21.2904 25.112C21.1231 25.3888 20.8926 25.6188 20.6194 25.7816C20.3351 25.9515 20.0139 26.0399 19.6869 26.0399C18.6369 26.0399 17.7859 25.1424 17.7859 24.0348C17.7859 22.9272 18.6369 22.0307 19.6869 22.0307C19.8859 22.0307 20.083 22.0631 20.2726 22.1269L20.2754 19.7241C19.7009 19.6459 19.1169 19.6935 18.5612 19.8639C18.0055 20.0342 17.4905 20.3234 17.0495 20.7129C16.661 21.0664 16.335 21.4887 16.0848 21.96C15.99 22.1318 15.6299 22.8221 15.5873 23.9435C15.5598 24.5788 15.7417 25.2377 15.8289 25.5097V25.5155C15.8839 25.6766 16.0952 26.2225 16.4411 26.684C16.7188 27.0552 17.0476 27.3802 17.4172 27.6493V27.6434L17.422 27.6493C18.5137 28.426 19.7229 28.3759 19.7229 28.3759C19.9314 28.3661 20.6336 28.3759 21.4297 27.9792C21.9589 27.7175 22.4307 27.3462 22.8161 26.8883C23.1383 26.4975 23.3933 26.0536 23.5724 25.5725C23.7374 25.0886 23.8291 24.5812 23.8444 24.0682V19.2243C23.8718 19.241 24.2357 19.4934 24.2357 19.4934C24.2357 19.4934 24.7598 19.8459 25.5786 20.0757C26.1662 20.2387 26.9565 20.2721 26.9565 20.2721V17.9302C26.6789 17.9616 26.1169 17.8693 25.5407 17.5678Z" fill="white" stroke="black" stroke-width="0.458439"/>
</svg>
